<svg xmlns="http://www.w3.org/2000/svg" viewBox="0 0 400 400" role="img" aria-label="Black tea leaves">
  <defs>
    <linearGradient id="bg2" x1="0%" y1="0%" x2="100%" y2="100%">
      <stop offset="0%" stop-color="#f5ebe0"/>
      <stop offset="100%" stop-color="#e8d5c4"/>
    </linearGradient>
    <linearGradient id="tea2" x1="0%" y1="0%" x2="0%" y2="100%">
      <stop offset="0%" stop-color="#8b5a2b"/>
      <stop offset="100%" stop-color="#5c3d1e"/>
    </linearGradient>
  </defs>
  <rect width="400" height="400" fill="url(#bg2)" rx="32"/>
  <ellipse cx="200" cy="330" rx="130" ry="20" fill="#8b5a2b" opacity="0.12"/>
  <ellipse cx="200" cy="250" rx="90" ry="25" fill="url(#tea2)"/>
  <ellipse cx="200" cy="245" rx="75" ry="18" fill="#a0522d"/>
  <path d="M120 200 Q140 160 160 200 Q150 230 130 220 Z" fill="#3d2914" opacity="0.7"/>
  <path d="M240 190 Q260 150 280 195 Q270 225 250 215 Z" fill="#3d2914" opacity="0.6"/>
  <path d="M170 210 Q190 175 210 208 Q200 235 180 228 Z" fill="#4a3520" opacity="0.8"/>
  <path d="M210 205 Q230 170 250 203 Q240 232 220 225 Z" fill="#4a3520" opacity="0.75"/>
  <ellipse cx="200" cy="120" rx="20" ry="32" fill="#fff" opacity="0.25"/>
  <ellipse cx="215" cy="105" rx="15" ry="25" fill="#fff" opacity="0.2"/>
</svg>
